<?xml version="1.0" encoding="UTF-8" standalone="no" ?>
<svg xmlns="http://www.w3.org/2000/svg" width="269.768px" height="22.888px" viewBox="0 -1016.8 14904.6 1264.8" xmlns:xlink="http://www.w3.org/1999/xlink"><defs><path id="MJX-74-NCM-I-1D442" d="M702 263C727 320 740 377 740 435C740 513 717 577 670 628C623 679 561 705 484 705C431 705 378 692 325 666C217 613 138 529 87 415C62 359 49 303 49 246C49 167 72 103 119 53C166 3 228-22 306-22C358-22 410-9 463 16C572 69 651 152 702 263M644 474C644 341 584 208 520 129C476 74 400 12 312 12C205 12 149 105 149 218C149 253 156 300 169 357C196 475 264 579 353 633C396 659 438 672 478 672C586 672 644 586 644 474Z"/><path id="MJX-74-NCM-N-2061" d=""/><path id="MJX-74-NCM-N-28" d="M318-248C327-248 332-243 332-234C332-231 330-227 327-223C275-183 233-117 202-26C175 53 161 131 161 208L161 292C161 369 175 447 202 526C233 617 275 683 327 723C330 726 332 730 332 734C332 743 327 748 318 748C317 748 314 747 311 745C251 699 201 631 160 540C121 453 101 371 101 292L101 208C101 129 121 47 160-40C201-131 251-199 311-245C314-247 317-248 318-248Z"/><path id="MJX-74-NCM-I-1D441" d="M864 683C845 683 783 680 764 680C745 680 682 683 663 683C648 683 641 675 641 659C641 650 648 645 663 644C705 644 726 631 726 605C726 599 725 592 724 585L616 157L401 662C393 681 391 683 366 683L233 683C209 683 200 681 200 659C200 649 211 644 232 644C274 644 295 643 296 640L163 110C154 71 131 49 95 42C69 39 39 43 39 15C39 5 45 0 56 0C74 0 136 3 155 3C174 3 238 0 257 0C272 0 279 8 279 24C279 33 271 38 255 39C214 40 194 53 194 78C194 83 195 90 197 100L326 611L576 21C582 7 590 0 599 0C608 0 614 8 618 24L757 574C770 625 798 643 860 644C874 645 881 653 881 669C878 678 877 683 864 683Z"/><path id="MJX-74-NCM-N-2062" d=""/><path id="MJX-74-NCM-N-6C" d="M144 3L255 0L255 39C219 39 197 40 190 44C183 48 180 60 180 79L180 694L33 683L33 645C68 645 90 642 97 636C104 630 108 616 108 593L108 79C108 60 105 48 98 44C91 40 69 39 33 39L33 0Z"/><path id="MJX-74-NCM-N-6F" d="M249-11C311-11 363 11 406 55C449 99 471 152 471 214C471 277 450 332 408 378C366 424 313 448 250 448C187 448 135 424 92 378C49 332 28 277 28 214C28 152 49 99 92 55C135 11 188-11 249-11M250 21C202 21 166 42 141 85C125 113 117 159 117 222C117 283 125 327 140 355C164 398 200 419 249 419C296 419 332 398 357 357C374 329 382 284 382 222C382 106 348 21 250 21Z"/><path id="MJX-74-NCM-N-67" d="M431 453C393 453 358 438 326 408C296 431 262 442 223 442C137 442 59 378 59 294C59 252 74 218 104 192C85 168 75 141 75 110C75 72 88 43 113 24C71 10 28-26 28-77C28-120 56-154 111-178C153-197 199-206 249-206C300-206 347-197 389-178C444-154 471-120 471-75C471-22 449 17 405 42C359 67 308 70 234 70C190 70 166 70 161 71C133 75 113 102 113 133C113 148 117 162 126 174C154 155 186 145 223 145C309 145 386 209 386 293C386 332 373 364 347 389C372 412 399 423 428 423C423 418 420 410 420 400C420 378 431 367 453 367C474 367 485 378 485 401C485 432 461 453 431 453M223 411C277 411 304 372 304 294C304 215 277 175 223 175C168 175 141 214 141 293C141 372 168 411 223 411M164 4L222 4C274 4 316 1 348-6C391-15 412-39 412-77C412-109 392-134 352-153C321-168 287-175 250-175C214-175 180-168 148-153C107-134 87-109 87-77C87-35 123 4 164 4Z"/><path id="MJX-74-NCM-N-221A" d="M847-2C851 7 853 13 853 16C853 32 845 40 829 40C820 40 813 36 809 27C666-259 595-403 595-405L595-406C595-413 527-558 390-843L217-461C212-450 207-445 201-445C198-445 192-448 184-454L86-528C77-535 73-540 73-545C73-555 78-560 87-560C90-560 95-557 103-551L151-516L345-943C350-954 357-960 367-960C379-960 387-955 392-946Z"/><path id="MJX-74-NCM-N-29" d="M78-245C138-199 188-131 229-40C268 47 288 129 288 208L288 292C288 371 268 453 229 540C188 631 138 699 78 745C75 747 72 748 71 748C62 748 57 743 57 734C57 730 59 726 62 723C114 683 156 617 187 526C214 447 228 369 228 292L228 208C228 131 214 53 187-26C156-117 114-183 62-223C59-227 57-231 57-234C57-243 62-248 71-248C72-248 75-247 78-245Z"/><path id="MJX-74-NCM-N-3D" d="M698 367L80 367C64 367 56 359 56 344C56 329 64 321 80 321L698 321C714 321 722 329 722 344C722 356 711 367 698 367M698 179L80 179C64 179 56 171 56 156C56 141 64 133 80 133L698 133C714 133 722 141 722 156C722 169 711 179 698 179Z"/></defs><g stroke="#000000" fill="#000000" stroke-width="0" transform="scale(1,-1)"><g data-mml-node="math" data-latex="O(N \log \log \sqrt N) = O( N \log \log N)" data-semantic-type="relseq" data-semantic-role="equality" data-semantic-annotation="depth:1" data-semantic-id="38" data-semantic-children="37,35" data-semantic-content="10" data-semantic-attributes="latex:O(N \log \log \sqrt N) = O( N \log \log N)" data-semantic-owns="37 10 35" aria-level="0" data-speech-node="true" data-semantic-structure="(38 (37 0 36 (26 1 (25 2 24 (23 3 22 (21 5 20 (8 7)))) 9)) 10 (35 11 34 (33 12 (32 13 31 (30 14 29 (28 16 27 18))) 19)))"><g data-mml-node="mrow" data-semantic-added="true" data-semantic-type="appl" data-semantic-role="simple function" data-semantic-annotation="depth:2" data-semantic-id="37" data-semantic-children="0,26" data-semantic-content="36,0" data-semantic-parent="38" data-semantic-owns="0 36 26" aria-level="1" data-speech-node="true"><g data-mml-node="mi" data-latex="O" data-semantic-type="identifier" data-semantic-role="simple function" data-semantic-font="italic" data-semantic-annotation="clearspeak:simple;nemeth:number;depth:3" data-semantic-id="0" data-semantic-parent="37" data-semantic-attributes="latex:O" data-semantic-operator="appl" aria-level="2" data-speech-node="true"><use data-c="1D442" xlink:href="#MJX-74-NCM-I-1D442" xmlns:xlink="http://www.w3.org/1999/xlink"/></g><g data-mml-node="mo" data-semantic-type="punctuation" data-semantic-role="application" data-semantic-annotation="nemeth:number;depth:3" data-semantic-id="36" data-semantic-parent="37" data-semantic-added="true" data-semantic-operator="appl" aria-level="2" data-speech-node="true" transform="translate(763,0)"><use data-c="2061" xlink:href="#MJX-74-NCM-N-2061" xmlns:xlink="http://www.w3.org/1999/xlink"/></g><g data-mml-node="mrow" data-semantic-added="true" data-semantic-type="fenced" data-semantic-role="leftright" data-semantic-annotation="depth:3" data-semantic-id="26" data-semantic-children="25" data-semantic-content="1,9" data-semantic-parent="37" data-semantic-owns="1 25 9" aria-level="2" data-speech-node="true" transform="translate(763,0)"><g data-mml-node="mo" data-latex="(" data-semantic-type="fence" data-semantic-role="open" data-semantic-annotation="depth:4" data-semantic-id="1" data-semantic-parent="26" data-semantic-attributes="latex:(" data-semantic-operator="fenced" aria-level="3" data-speech-node="true"><use data-c="28" xlink:href="#MJX-74-NCM-N-28" xmlns:xlink="http://www.w3.org/1999/xlink"/></g><g data-mml-node="mrow" data-semantic-added="true" data-semantic-type="infixop" data-semantic-role="implicit" data-semantic-annotation="clearspeak:unit;depth:4" data-semantic-id="25" data-semantic-children="2,23" data-semantic-content="24" data-semantic-parent="26" data-semantic-owns="2 24 23" aria-level="3" data-speech-node="true" transform="translate(389,0)"><g data-mml-node="mi" data-latex="N" data-semantic-type="identifier" data-semantic-role="latinletter" data-semantic-font="italic" data-semantic-annotation="clearspeak:simple;depth:5" data-semantic-id="2" data-semantic-parent="25" data-semantic-attributes="latex:N" aria-level="4" data-speech-node="true"><use data-c="1D441" xlink:href="#MJX-74-NCM-I-1D441" xmlns:xlink="http://www.w3.org/1999/xlink"/></g><g data-mml-node="mo" data-semantic-type="operator" data-semantic-role="multiplication" data-semantic-annotation="depth:5" data-semantic-id="24" data-semantic-parent="25" data-semantic-added="true" data-semantic-operator="infixop,⁢" aria-level="4" data-speech-node="true" transform="translate(881,0)"><use data-c="2062" xlink:href="#MJX-74-NCM-N-2062" xmlns:xlink="http://www.w3.org/1999/xlink"/></g><g data-mml-node="mrow" data-semantic-added="true" data-semantic-type="appl" data-semantic-role="prefix function" data-semantic-annotation="depth:5" data-semantic-id="23" data-semantic-children="3,21" data-semantic-content="22,3" data-semantic-parent="25" data-semantic-owns="3 22 21" aria-level="4" data-speech-node="true" transform="translate(1047.7,0)"><g data-mml-node="mi" data-latex="\log" data-semantic-type="function" data-semantic-role="prefix function" data-semantic-font="normal" data-semantic-annotation="nemeth:number;depth:6" data-semantic-id="3" data-semantic-parent="23" data-semantic-attributes="latex:\log" data-semantic-operator="appl" aria-level="5" data-speech-node="true"><use data-c="6C" xlink:href="#MJX-74-NCM-N-6C" xmlns:xlink="http://www.w3.org/1999/xlink"/><use data-c="6F" xlink:href="#MJX-74-NCM-N-6F" xmlns:xlink="http://www.w3.org/1999/xlink" transform="translate(278,0)"/><use data-c="67" xlink:href="#MJX-74-NCM-N-67" xmlns:xlink="http://www.w3.org/1999/xlink" transform="translate(778,0)"/></g><g data-mml-node="mo" data-mjx-texclass="NONE" data-semantic-type="punctuation" data-semantic-role="application" data-semantic-annotation="nemeth:number;depth:6" data-semantic-id="22" data-semantic-parent="23" data-semantic-attributes="texclass:NONE" data-semantic-operator="appl" aria-level="5" data-speech-node="true" transform="translate(1278,0)"><use data-c="2061" xlink:href="#MJX-74-NCM-N-2061" xmlns:xlink="http://www.w3.org/1999/xlink"/></g><g data-mml-node="mrow" data-semantic-added="true" data-semantic-type="appl" data-semantic-role="prefix function" data-semantic-annotation="depth:6" data-semantic-id="21" data-semantic-children="5,8" data-semantic-content="20,5" data-semantic-parent="23" data-semantic-owns="5 20 8" aria-level="5" data-speech-node="true" transform="translate(1444.7,0)"><g data-mml-node="mi" data-latex="\log" data-semantic-type="function" data-semantic-role="prefix function" data-semantic-font="normal" data-semantic-annotation="nemeth:number;depth:7" data-semantic-id="5" data-semantic-parent="21" data-semantic-attributes="latex:\log" data-semantic-operator="appl" aria-level="6" data-speech-node="true"><use data-c="6C" xlink:href="#MJX-74-NCM-N-6C" xmlns:xlink="http://www.w3.org/1999/xlink"/><use data-c="6F" xlink:href="#MJX-74-NCM-N-6F" xmlns:xlink="http://www.w3.org/1999/xlink" transform="translate(278,0)"/><use data-c="67" xlink:href="#MJX-74-NCM-N-67" xmlns:xlink="http://www.w3.org/1999/xlink" transform="translate(778,0)"/></g><g data-mml-node="mo" data-mjx-texclass="NONE" data-semantic-type="punctuation" data-semantic-role="application" data-semantic-annotation="nemeth:number;depth:7" data-semantic-id="20" data-semantic-parent="21" data-semantic-attributes="texclass:NONE" data-semantic-operator="appl" aria-level="6" data-speech-node="true" transform="translate(1278,0)"><use data-c="2061" xlink:href="#MJX-74-NCM-N-2061" xmlns:xlink="http://www.w3.org/1999/xlink"/></g><g data-mml-node="msqrt" data-latex="\sqrt N" data-semantic-type="sqrt" data-semantic-role="unknown" data-semantic-annotation="depth:7" data-semantic-id="8" data-semantic-children="7" data-semantic-parent="21" data-semantic-attributes="latex:\sqrt N" data-semantic-owns="7" aria-level="6" data-speech-node="true" transform="translate(1444.7,0)"><g data-mml-node="mo" transform="translate(0,916.8)"><use data-c="221A" xlink:href="#MJX-74-NCM-N-221A" xmlns:xlink="http://www.w3.org/1999/xlink"/></g><g transform="translate(853,0)"><g data-mml-node="mi" data-latex="N" data-semantic-type="identifier" data-semantic-role="latinletter" data-semantic-font="italic" data-semantic-annotation="clearspeak:simple;nemeth:number;depth:8" data-semantic-id="7" data-semantic-parent="8" data-semantic-attributes="latex:N" aria-level="7" data-speech-node="true"><use data-c="1D441" xlink:href="#MJX-74-NCM-I-1D441" xmlns:xlink="http://www.w3.org/1999/xlink"/></g></g><rect width="881" height="60" x="853" y="896.7"/></g></g></g></g><g data-mml-node="mo" data-latex=")" data-semantic-type="fence" data-semantic-role="close" data-semantic-annotation="depth:4" data-semantic-id="9" data-semantic-parent="26" data-semantic-attributes="latex:)" data-semantic-operator="fenced" aria-level="3" data-speech-node="true" transform="translate(6060,0)"><use data-c="29" xlink:href="#MJX-74-NCM-N-29" xmlns:xlink="http://www.w3.org/1999/xlink"/></g></g></g><g data-mml-node="mo" data-latex="=" data-semantic-type="relation" data-semantic-role="equality" data-semantic-annotation="nemeth:number;depth:2" data-semantic-id="10" data-semantic-parent="38" data-semantic-attributes="latex:=" data-semantic-operator="relseq,=" aria-level="1" data-speech-node="true" transform="translate(7489.8,0)"><use data-c="3D" xlink:href="#MJX-74-NCM-N-3D" xmlns:xlink="http://www.w3.org/1999/xlink"/></g><g data-mml-node="mrow" data-semantic-added="true" data-semantic-type="appl" data-semantic-role="simple function" data-semantic-annotation="depth:2" data-semantic-id="35" data-semantic-children="11,33" data-semantic-content="34,11" data-semantic-parent="38" data-semantic-owns="11 34 33" aria-level="1" data-speech-node="true" transform="translate(8545.6,0)"><g data-mml-node="mi" data-latex="O" data-semantic-type="identifier" data-semantic-role="simple function" data-semantic-font="italic" data-semantic-annotation="clearspeak:simple;nemeth:number;depth:3" data-semantic-id="11" data-semantic-parent="35" data-semantic-attributes="latex:O" data-semantic-operator="appl" aria-level="2" data-speech-node="true"><use data-c="1D442" xlink:href="#MJX-74-NCM-I-1D442" xmlns:xlink="http://www.w3.org/1999/xlink"/></g><g data-mml-node="mo" data-semantic-type="punctuation" data-semantic-role="application" data-semantic-annotation="nemeth:number;depth:3" data-semantic-id="34" data-semantic-parent="35" data-semantic-added="true" data-semantic-operator="appl" aria-level="2" data-speech-node="true" transform="translate(763,0)"><use data-c="2061" xlink:href="#MJX-74-NCM-N-2061" xmlns:xlink="http://www.w3.org/1999/xlink"/></g><g data-mml-node="mrow" data-semantic-added="true" data-semantic-type="fenced" data-semantic-role="leftright" data-semantic-annotation="depth:3" data-semantic-id="33" data-semantic-children="32" data-semantic-content="12,19" data-semantic-parent="35" data-semantic-owns="12 32 19" aria-level="2" data-speech-node="true" transform="translate(763,0)"><g data-mml-node="mo" data-latex="(" data-semantic-type="fence" data-semantic-role="open" data-semantic-annotation="depth:4" data-semantic-id="12" data-semantic-parent="33" data-semantic-attributes="latex:(" data-semantic-operator="fenced" aria-level="3" data-speech-node="true"><use data-c="28" xlink:href="#MJX-74-NCM-N-28" xmlns:xlink="http://www.w3.org/1999/xlink"/></g><g data-mml-node="mrow" data-semantic-added="true" data-semantic-type="infixop" data-semantic-role="implicit" data-semantic-annotation="clearspeak:unit;depth:4" data-semantic-id="32" data-semantic-children="13,30" data-semantic-content="31" data-semantic-parent="33" data-semantic-owns="13 31 30" aria-level="3" data-speech-node="true" transform="translate(389,0)"><g data-mml-node="mi" data-latex="N" data-semantic-type="identifier" data-semantic-role="latinletter" data-semantic-font="italic" data-semantic-annotation="clearspeak:simple;depth:5" data-semantic-id="13" data-semantic-parent="32" data-semantic-attributes="latex:N" aria-level="4" data-speech-node="true"><use data-c="1D441" xlink:href="#MJX-74-NCM-I-1D441" xmlns:xlink="http://www.w3.org/1999/xlink"/></g><g data-mml-node="mo" data-semantic-type="operator" data-semantic-role="multiplication" data-semantic-annotation="depth:5" data-semantic-id="31" data-semantic-parent="32" data-semantic-added="true" data-semantic-operator="infixop,⁢" aria-level="4" data-speech-node="true" transform="translate(881,0)"><use data-c="2062" xlink:href="#MJX-74-NCM-N-2062" xmlns:xlink="http://www.w3.org/1999/xlink"/></g><g data-mml-node="mrow" data-semantic-added="true" data-semantic-type="appl" data-semantic-role="prefix function" data-semantic-annotation="clearspeak:simple;depth:5" data-semantic-id="30" data-semantic-children="14,28" data-semantic-content="29,14" data-semantic-parent="32" data-semantic-owns="14 29 28" aria-level="4" data-speech-node="true" transform="translate(1047.7,0)"><g data-mml-node="mi" data-latex="\log" data-semantic-type="function" data-semantic-role="prefix function" data-semantic-font="normal" data-semantic-annotation="nemeth:number;depth:6" data-semantic-id="14" data-semantic-parent="30" data-semantic-attributes="latex:\log" data-semantic-operator="appl" aria-level="5" data-speech-node="true"><use data-c="6C" xlink:href="#MJX-74-NCM-N-6C" xmlns:xlink="http://www.w3.org/1999/xlink"/><use data-c="6F" xlink:href="#MJX-74-NCM-N-6F" xmlns:xlink="http://www.w3.org/1999/xlink" transform="translate(278,0)"/><use data-c="67" xlink:href="#MJX-74-NCM-N-67" xmlns:xlink="http://www.w3.org/1999/xlink" transform="translate(778,0)"/></g><g data-mml-node="mo" data-mjx-texclass="NONE" data-semantic-type="punctuation" data-semantic-role="application" data-semantic-annotation="nemeth:number;depth:6" data-semantic-id="29" data-semantic-parent="30" data-semantic-attributes="texclass:NONE" data-semantic-operator="appl" aria-level="5" data-speech-node="true" transform="translate(1278,0)"><use data-c="2061" xlink:href="#MJX-74-NCM-N-2061" xmlns:xlink="http://www.w3.org/1999/xlink"/></g><g data-mml-node="mrow" data-semantic-added="true" data-semantic-type="appl" data-semantic-role="prefix function" data-semantic-annotation="clearspeak:simple;depth:6" data-semantic-id="28" data-semantic-children="16,18" data-semantic-content="27,16" data-semantic-parent="30" data-semantic-owns="16 27 18" aria-level="5" data-speech-node="true" transform="translate(1444.7,0)"><g data-mml-node="mi" data-latex="\log" data-semantic-type="function" data-semantic-role="prefix function" data-semantic-font="normal" data-semantic-annotation="nemeth:number;depth:7" data-semantic-id="16" data-semantic-parent="28" data-semantic-attributes="latex:\log" data-semantic-operator="appl" aria-level="6" data-speech-node="true"><use data-c="6C" xlink:href="#MJX-74-NCM-N-6C" xmlns:xlink="http://www.w3.org/1999/xlink"/><use data-c="6F" xlink:href="#MJX-74-NCM-N-6F" xmlns:xlink="http://www.w3.org/1999/xlink" transform="translate(278,0)"/><use data-c="67" xlink:href="#MJX-74-NCM-N-67" xmlns:xlink="http://www.w3.org/1999/xlink" transform="translate(778,0)"/></g><g data-mml-node="mo" data-mjx-texclass="NONE" data-semantic-type="punctuation" data-semantic-role="application" data-semantic-annotation="nemeth:number;depth:7" data-semantic-id="27" data-semantic-parent="28" data-semantic-attributes="texclass:NONE" data-semantic-operator="appl" aria-level="6" data-speech-node="true" transform="translate(1278,0)"><use data-c="2061" xlink:href="#MJX-74-NCM-N-2061" xmlns:xlink="http://www.w3.org/1999/xlink"/></g><g data-mml-node="mi" data-latex="N" data-semantic-type="identifier" data-semantic-role="latinletter" data-semantic-font="italic" data-semantic-annotation="clearspeak:simple;nemeth:number;depth:7" data-semantic-id="18" data-semantic-parent="28" data-semantic-attributes="latex:N" aria-level="6" data-speech-node="true" transform="translate(1444.7,0)"><use data-c="1D441" xlink:href="#MJX-74-NCM-I-1D441" xmlns:xlink="http://www.w3.org/1999/xlink"/></g></g></g></g><g data-mml-node="mo" data-latex=")" data-semantic-type="fence" data-semantic-role="close" data-semantic-annotation="depth:4" data-semantic-id="19" data-semantic-parent="33" data-semantic-attributes="latex:)" data-semantic-operator="fenced" aria-level="3" data-speech-node="true" transform="translate(5207,0)"><use data-c="29" xlink:href="#MJX-74-NCM-N-29" xmlns:xlink="http://www.w3.org/1999/xlink"/></g></g></g></g></g></svg>