<?xml version="1.0" encoding="UTF-8" standalone="no" ?>
<svg xmlns="http://www.w3.org/2000/svg" width="97.920px" height="15.744px" viewBox="0 -677 5410 870" xmlns:xlink="http://www.w3.org/1999/xlink"><defs><path id="MJX-17-NCM-N-32" d="M237 666C186 666 143 648 106 612C69 576 50 534 50 483C50 449 75 424 106 424C136 424 161 450 161 480C161 513 137 536 105 536C102 536 100 536 98 535C117 584 161 627 224 627C306 627 352 556 352 470C352 403 318 331 250 255L62 43C49 28 50 29 50 0L421 0L450 180L417 180C409 129 402 100 396 91C391 86 361 84 306 84L139 84L236 179C304 243 390 312 419 365C439 400 449 435 449 470C449 588 357 666 237 666Z"/><path id="MJX-17-NCM-N-2062" d=""/><path id="MJX-17-NCM-I-1D45B" d="M537 137C514 58 481 18 440 18C427 18 420 28 420 47C420 61 426 84 438 115C478 224 498 296 498 333C498 403 451 442 381 442C322 442 271 416 230 363C222 407 187 442 136 442C80 442 58 390 44 345C34 313 29 294 29 287C29 278 34 273 45 273C50 273 53 274 56 276C61 285 64 292 65 299C83 375 106 413 133 413C151 413 160 399 160 371C160 358 155 331 144 290L87 63C84 50 78 24 78 19C78-1 89-11 111-11C130-11 144-1 151 19C153 24 159 49 170 92L191 181L221 295C232 318 249 341 270 365C299 397 335 413 378 413C411 413 427 391 427 348C427 310 406 234 363 120C356 102 353 87 353 74C353 25 390-11 438-11C482-11 517 14 542 64C561 104 571 131 571 144C571 153 566 158 555 158C552 158 537 149 537 137Z"/><path id="MJX-17-NCM-N-2C" d="M139 106C107 106 86 82 86 50C86 20 109-5 139-5C153-5 165-1 174 8L175 0C175-63 154-117 112-160C105-168 101-174 101-178C101-188 105-193 114-193C123-193 135-181 152-158C186-110 203-57 203 0C203 53 185 106 139 106Z"/><path id="MJX-17-NCM-N-33" d="M303 353C369 378 431 441 431 526C431 569 410 604 369 631C333 654 292 666 246 666C201 666 162 654 127 631C88 605 68 571 68 528C68 495 90 472 122 472C154 472 176 495 176 527C176 560 157 578 119 580C145 615 186 633 242 633C302 633 332 598 332 527C332 485 324 450 309 421C282 373 245 364 183 364C171 362 165 357 165 348C165 333 172 333 192 333L235 333C310 333 348 280 348 173C348 88 317 14 241 14C176 14 128 36 99 80C134 79 160 105 160 139C160 173 135 198 101 198C62 198 42 178 42 137C42 88 64 49 108 18C147-9 193-22 244-22C301-22 350-3 393 34C436 71 457 117 457 173C457 267 383 332 303 353Z"/><path id="MJX-17-NCM-N-34" d="M353 677C344 677 336 672 330 663L28 199L28 163L289 163L289 81C289 63 285 51 278 46C271 41 252 39 219 39L194 39L194 0C223 2 269 3 331 3C393 3 439 2 468 0L468 39L443 39C410 39 391 41 384 46C377 51 373 63 373 81L373 163L471 163L471 202L373 202L373 660C373 670 366 677 353 677M295 553L295 202L67 202Z"/><path id="MJX-17-NCM-N-22EF" d="M720 250C720 280 694 303 664 303C633 303 607 280 607 250C607 220 633 197 664 197C694 197 720 220 720 250M444 250C444 280 418 303 388 303C357 303 332 280 332 250C332 220 357 197 388 197C418 197 444 220 444 250M169 250C169 280 143 303 112 303C82 303 56 280 56 250C56 220 82 197 112 197C142 197 169 220 169 250Z"/></defs><g stroke="#000000" fill="#000000" stroke-width="0" transform="scale(1,-1)"><g data-mml-node="math" data-latex="2n, 3n, 4n, \cdots" data-semantic-type="punctuated" data-semantic-role="sequence" data-semantic-annotation="depth:1" data-semantic-id="16" data-semantic-children="11,2,13,5,15,8,9" data-semantic-content="2,5,8" data-semantic-attributes="latex:2n, 3n, 4n, \cdots" data-semantic-owns="11 2 13 5 15 8 9" aria-level="0" data-speech-node="true" data-semantic-structure="(16 (11 0 10 1) 2 (13 3 12 4) 5 (15 6 14 7) 8 9)"><g data-mml-node="mrow" data-semantic-added="true" data-semantic-type="infixop" data-semantic-role="implicit" data-semantic-annotation="clearspeak:simple;clearspeak:unit;depth:2" data-semantic-id="11" data-semantic-children="0,1" data-semantic-content="10" data-semantic-parent="16" data-semantic-owns="0 10 1" aria-level="1" data-speech-node="true"><g data-mml-node="mn" data-latex="2" data-semantic-type="number" data-semantic-role="integer" data-semantic-font="normal" data-semantic-annotation="clearspeak:simple;nemeth:number;depth:3" data-semantic-id="0" data-semantic-parent="11" data-semantic-attributes="latex:2" aria-level="2" data-speech-node="true"><use data-c="32" xlink:href="#MJX-17-NCM-N-32" xmlns:xlink="http://www.w3.org/1999/xlink"/></g><g data-mml-node="mo" data-semantic-type="operator" data-semantic-role="multiplication" data-semantic-annotation="depth:3" data-semantic-id="10" data-semantic-parent="11" data-semantic-added="true" data-semantic-operator="infixop,⁢" aria-level="2" data-speech-node="true" transform="translate(500,0)"><use data-c="2062" xlink:href="#MJX-17-NCM-N-2062" xmlns:xlink="http://www.w3.org/1999/xlink"/></g><g data-mml-node="mi" data-latex="n" data-semantic-type="identifier" data-semantic-role="latinletter" data-semantic-font="italic" data-semantic-annotation="clearspeak:simple;depth:3" data-semantic-id="1" data-semantic-parent="11" data-semantic-attributes="latex:n" aria-level="2" data-speech-node="true" transform="translate(500,0)"><use data-c="1D45B" xlink:href="#MJX-17-NCM-I-1D45B" xmlns:xlink="http://www.w3.org/1999/xlink"/></g></g><g data-mml-node="mo" data-latex="," data-semantic-type="punctuation" data-semantic-role="comma" data-semantic-annotation="nemeth:number;depth:2" data-semantic-id="2" data-semantic-parent="16" data-semantic-attributes="latex:," data-semantic-operator="punctuated" aria-level="1" data-speech-node="true" transform="translate(1100,0)"><use data-c="2C" xlink:href="#MJX-17-NCM-N-2C" xmlns:xlink="http://www.w3.org/1999/xlink"/></g><g data-mml-node="mrow" data-semantic-added="true" data-semantic-type="infixop" data-semantic-role="implicit" data-semantic-annotation="clearspeak:simple;clearspeak:unit;depth:2" data-semantic-id="13" data-semantic-children="3,4" data-semantic-content="12" data-semantic-parent="16" data-semantic-owns="3 12 4" aria-level="1" data-speech-node="true" transform="translate(1544.7,0)"><g data-mml-node="mn" data-latex="3" data-semantic-type="number" data-semantic-role="integer" data-semantic-font="normal" data-semantic-annotation="clearspeak:simple;nemeth:number;depth:3" data-semantic-id="3" data-semantic-parent="13" data-semantic-attributes="latex:3" aria-level="2" data-speech-node="true"><use data-c="33" xlink:href="#MJX-17-NCM-N-33" xmlns:xlink="http://www.w3.org/1999/xlink"/></g><g data-mml-node="mo" data-semantic-type="operator" data-semantic-role="multiplication" data-semantic-annotation="depth:3" data-semantic-id="12" data-semantic-parent="13" data-semantic-added="true" data-semantic-operator="infixop,⁢" aria-level="2" data-speech-node="true" transform="translate(500,0)"><use data-c="2062" xlink:href="#MJX-17-NCM-N-2062" xmlns:xlink="http://www.w3.org/1999/xlink"/></g><g data-mml-node="mi" data-latex="n" data-semantic-type="identifier" data-semantic-role="latinletter" data-semantic-font="italic" data-semantic-annotation="clearspeak:simple;depth:3" data-semantic-id="4" data-semantic-parent="13" data-semantic-attributes="latex:n" aria-level="2" data-speech-node="true" transform="translate(500,0)"><use data-c="1D45B" xlink:href="#MJX-17-NCM-I-1D45B" xmlns:xlink="http://www.w3.org/1999/xlink"/></g></g><g data-mml-node="mo" data-latex="," data-semantic-type="punctuation" data-semantic-role="comma" data-semantic-annotation="nemeth:number;depth:2" data-semantic-id="5" data-semantic-parent="16" data-semantic-attributes="latex:," data-semantic-operator="punctuated" aria-level="1" data-speech-node="true" transform="translate(2644.7,0)"><use data-c="2C" xlink:href="#MJX-17-NCM-N-2C" xmlns:xlink="http://www.w3.org/1999/xlink"/></g><g data-mml-node="mrow" data-semantic-added="true" data-semantic-type="infixop" data-semantic-role="implicit" data-semantic-annotation="clearspeak:simple;clearspeak:unit;depth:2" data-semantic-id="15" data-semantic-children="6,7" data-semantic-content="14" data-semantic-parent="16" data-semantic-owns="6 14 7" aria-level="1" data-speech-node="true" transform="translate(3089.3,0)"><g data-mml-node="mn" data-latex="4" data-semantic-type="number" data-semantic-role="integer" data-semantic-font="normal" data-semantic-annotation="clearspeak:simple;nemeth:number;depth:3" data-semantic-id="6" data-semantic-parent="15" data-semantic-attributes="latex:4" aria-level="2" data-speech-node="true"><use data-c="34" xlink:href="#MJX-17-NCM-N-34" xmlns:xlink="http://www.w3.org/1999/xlink"/></g><g data-mml-node="mo" data-semantic-type="operator" data-semantic-role="multiplication" data-semantic-annotation="depth:3" data-semantic-id="14" data-semantic-parent="15" data-semantic-added="true" data-semantic-operator="infixop,⁢" aria-level="2" data-speech-node="true" transform="translate(500,0)"><use data-c="2062" xlink:href="#MJX-17-NCM-N-2062" xmlns:xlink="http://www.w3.org/1999/xlink"/></g><g data-mml-node="mi" data-latex="n" data-semantic-type="identifier" data-semantic-role="latinletter" data-semantic-font="italic" data-semantic-annotation="clearspeak:simple;depth:3" data-semantic-id="7" data-semantic-parent="15" data-semantic-attributes="latex:n" aria-level="2" data-speech-node="true" transform="translate(500,0)"><use data-c="1D45B" xlink:href="#MJX-17-NCM-I-1D45B" xmlns:xlink="http://www.w3.org/1999/xlink"/></g></g><g data-mml-node="mo" data-latex="," data-semantic-type="punctuation" data-semantic-role="comma" data-semantic-annotation="nemeth:number;depth:2" data-semantic-id="8" data-semantic-parent="16" data-semantic-attributes="latex:," data-semantic-operator="punctuated" aria-level="1" data-speech-node="true" transform="translate(4189.3,0)"><use data-c="2C" xlink:href="#MJX-17-NCM-N-2C" xmlns:xlink="http://www.w3.org/1999/xlink"/></g><g data-mml-node="mo" data-latex="\cdots" data-semantic-type="punctuation" data-semantic-role="ellipsis" data-semantic-annotation="nemeth:number;depth:2" data-semantic-id="9" data-semantic-parent="16" data-semantic-attributes="latex:\cdots" aria-level="1" data-speech-node="true" transform="translate(4634,0)"><use data-c="22EF" xlink:href="#MJX-17-NCM-N-22EF" xmlns:xlink="http://www.w3.org/1999/xlink"/></g></g></g></svg>