<?xml version="1.0" encoding="UTF-8" standalone="no" ?>
<svg xmlns="http://www.w3.org/2000/svg" width="35.856px" height="18.096px" viewBox="0 -750 1981 1000" xmlns:xlink="http://www.w3.org/1999/xlink"><defs><path id="MJX-21-NCM-I-1D441" d="M864 683C845 683 783 680 764 680C745 680 682 683 663 683C648 683 641 675 641 659C641 650 648 645 663 644C705 644 726 631 726 605C726 599 725 592 724 585L616 157L401 662C393 681 391 683 366 683L233 683C209 683 200 681 200 659C200 649 211 644 232 644C274 644 295 643 296 640L163 110C154 71 131 49 95 42C69 39 39 43 39 15C39 5 45 0 56 0C74 0 136 3 155 3C174 3 238 0 257 0C272 0 279 8 279 24C279 33 271 38 255 39C214 40 194 53 194 78C194 83 195 90 197 100L326 611L576 21C582 7 590 0 599 0C608 0 614 8 618 24L757 574C770 625 798 643 860 644C874 645 881 653 881 669C878 678 877 683 864 683Z"/><path id="MJX-21-NCM-N-2F" d="M444 718C445 720 445 723 445 726C445 742 437 750 421 750C410 750 403 745 399 734L57-218C56-220 56-223 56-226C56-242 64-250 80-250C91-250 98-245 102-234Z"/><path id="MJX-21-NCM-I-1D45B" d="M537 137C514 58 481 18 440 18C427 18 420 28 420 47C420 61 426 84 438 115C478 224 498 296 498 333C498 403 451 442 381 442C322 442 271 416 230 363C222 407 187 442 136 442C80 442 58 390 44 345C34 313 29 294 29 287C29 278 34 273 45 273C50 273 53 274 56 276C61 285 64 292 65 299C83 375 106 413 133 413C151 413 160 399 160 371C160 358 155 331 144 290L87 63C84 50 78 24 78 19C78-1 89-11 111-11C130-11 144-1 151 19C153 24 159 49 170 92L191 181L221 295C232 318 249 341 270 365C299 397 335 413 378 413C411 413 427 391 427 348C427 310 406 234 363 120C356 102 353 87 353 74C353 25 390-11 438-11C482-11 517 14 542 64C561 104 571 131 571 144C571 153 566 158 555 158C552 158 537 149 537 137Z"/></defs><g stroke="#000000" fill="#000000" stroke-width="0" transform="scale(1,-1)"><g data-mml-node="math" data-latex="N / n" data-semantic-type="infixop" data-semantic-role="division" data-semantic-annotation="depth:1" data-semantic-id="3" data-semantic-children="0,2" data-semantic-content="1" data-semantic-attributes="latex:N / n" data-semantic-owns="0 1 2" aria-level="0" data-speech-node="true" data-semantic-structure="(3 0 1 2)"><g data-mml-node="mi" data-latex="N" data-semantic-type="identifier" data-semantic-role="latinletter" data-semantic-font="italic" data-semantic-annotation="clearspeak:simple;nemeth:number;depth:2" data-semantic-id="0" data-semantic-parent="3" data-semantic-attributes="latex:N" aria-level="1" data-speech-node="true"><use data-c="1D441" xlink:href="#MJX-21-NCM-I-1D441" xmlns:xlink="http://www.w3.org/1999/xlink"/></g><g data-mml-node="TeXAtom" data-mjx-texclass="ORD" transform="translate(881,0)"><g data-mml-node="mo" data-latex="/" data-semantic-type="operator" data-semantic-role="division" data-semantic-annotation="depth:2" data-semantic-id="1" data-semantic-parent="3" data-semantic-attributes="latex:/;texclass:ORD" data-semantic-operator="infixop,/" aria-level="1" data-speech-node="true"><use data-c="2F" xlink:href="#MJX-21-NCM-N-2F" xmlns:xlink="http://www.w3.org/1999/xlink"/></g></g><g data-mml-node="mi" data-latex="n" data-semantic-type="identifier" data-semantic-role="latinletter" data-semantic-font="italic" data-semantic-annotation="clearspeak:simple;depth:2" data-semantic-id="2" data-semantic-parent="3" data-semantic-attributes="latex:n" aria-level="1" data-speech-node="true" transform="translate(1381,0)"><use data-c="1D45B" xlink:href="#MJX-21-NCM-I-1D45B" xmlns:xlink="http://www.w3.org/1999/xlink"/></g></g></g></svg>