<?xml version="1.0" encoding="UTF-8" standalone="no" ?>
<svg xmlns="http://www.w3.org/2000/svg" width="140.576px" height="34.152px" viewBox="0 -1118 7766.7 1887" xmlns:xlink="http://www.w3.org/1999/xlink"><defs><path id="MJX-84-NCM-I-1D70B" d="M524 431L194 431C153 431 117 415 88 384C74 369 27 305 27 292C31 285 31 279 43 279C50 279 56 283 62 292C94 341 135 366 184 366L235 366C212 279 170 172 110 45C105 33 102 24 102 19C102-1 113-11 134-11C153-11 167 0 176 21C194 78 207 122 214 152L269 366L372 366C345 247 331 164 331 117C331 68 342-11 379-11C400-11 423 9 423 30C423 35 421 43 417 53C398 100 389 153 389 214C389 261 395 312 406 366L515 366C550 366 567 378 567 403C567 426 549 431 524 431Z"/><path id="MJX-84-NCM-N-2061" d=""/><path id="MJX-84-NCM-N-28" d="M318-248C327-248 332-243 332-234C332-231 330-227 327-223C275-183 233-117 202-26C175 53 161 131 161 208L161 292C161 369 175 447 202 526C233 617 275 683 327 723C330 726 332 730 332 734C332 743 327 748 318 748C317 748 314 747 311 745C251 699 201 631 160 540C121 453 101 371 101 292L101 208C101 129 121 47 160-40C201-131 251-199 311-245C314-247 317-248 318-248Z"/><path id="MJX-84-NCM-I-1D465" d="M527 373C527 419 482 442 432 442C389 442 355 419 329 373C308 419 273 442 222 442C173 442 133 419 101 374C74 335 60 306 60 287C60 278 65 273 75 273C84 273 90 278 92 287C111 345 153 413 220 413C253 413 269 392 269 351C269 330 251 252 216 118C199 51 169 18 126 18C112 18 99 21 88 26C114 36 127 54 127 80C127 106 114 119 87 119C54 119 29 91 29 58C29 12 76-11 125-11C167-11 201 12 228 58C247 12 283-11 335-11C383-11 423 12 455 57C482 96 496 125 496 144C496 153 491 158 481 158C472 158 467 153 464 144C447 87 402 18 337 18C304 18 287 38 287 79C287 92 292 120 303 165L337 300C356 375 387 413 431 413C445 413 458 410 469 405C442 396 429 378 429 351C429 325 443 312 470 312C502 312 527 341 527 373Z"/><path id="MJX-84-NCM-N-29" d="M78-245C138-199 188-131 229-40C268 47 288 129 288 208L288 292C288 371 268 453 229 540C188 631 138 699 78 745C75 747 72 748 71 748C62 748 57 743 57 734C57 730 59 726 62 723C114 683 156 617 187 526C214 447 228 369 228 292L228 208C228 131 214 53 187-26C156-117 114-183 62-223C59-227 57-231 57-234C57-243 62-248 71-248C72-248 75-247 78-245Z"/><path id="MJX-84-NCM-N-3C" d="M666-45C683-52 701-39 701-23C701-13 696-6 687-2L153 250L687 502C696 506 701 513 701 522C701 539 693 547 677 547C673 547 669 546 666 545L92 273C82 268 77 261 77 250C77 239 82 232 92 227Z"/><path id="MJX-84-NCM-N-6C" d="M144 3L255 0L255 39C219 39 197 40 190 44C183 48 180 60 180 79L180 694L33 683L33 645C68 645 90 642 97 636C104 630 108 616 108 593L108 79C108 60 105 48 98 44C91 40 69 39 33 39L33 0Z"/><path id="MJX-84-NCM-N-6E" d="M314 413C359 413 382 378 382 307L382 79C382 60 379 48 372 44C365 40 343 38 306 38L306 0L421 3L535 0L535 38C503 38 482 39 472 42C462 45 458 52 458 64L458 251C458 298 457 331 454 350C444 411 399 442 320 442C257 442 210 412 179 352L179 442L32 431L32 393C68 393 90 390 98 384C106 378 109 365 109 342L109 79C109 60 105 48 98 44C91 40 69 38 32 38L32 0L147 3L261 0L261 38C224 38 203 40 196 44C189 48 185 60 185 79L185 259C185 340 236 413 314 413Z"/><path id="MJX-84-NCM-N-2212" d="M698 270L80 270C64 270 56 263 56 250C56 237 64 230 80 230L698 230C714 230 722 237 722 250C722 262 710 270 698 270Z"/><path id="MJX-84-NCM-N-31" d="M269 666C228 624 168 603 89 603L89 564C141 564 184 572 217 588L217 82C217 64 213 52 204 47C195 42 170 39 130 39L95 39L95 0C120 2 174 3 257 3C340 3 394 2 419 0L419 39L384 39C343 39 318 42 310 47C302 52 297 64 297 82L297 636C297 660 295 666 269 666Z"/><path id="MJX-84-NCM-N-2E" d="M192 53C192 82 168 106 139 106C110 106 86 82 86 53C86 24 110 0 139 0C168 0 192 24 192 53Z"/></defs><g stroke="#000000" fill="#000000" stroke-width="0" transform="scale(1,-1)"><g data-mml-node="math" data-latex="\pi(x) &lt; \frac{x}{\ln x - 1.1}" data-semantic-type="relseq" data-semantic-role="inequality" data-semantic-annotation="depth:1" data-semantic-id="18" data-semantic-children="17,14" data-semantic-content="4" data-semantic-attributes="latex:\pi(x) &lt; \frac{x}{\ln x - 1.1}" data-semantic-owns="17 4 14" aria-level="0" data-speech-node="true" data-semantic-structure="(18 (17 0 16 (15 1 2 3)) 4 (14 5 (13 (12 6 11 8) 9 10)))"><g data-mml-node="mrow" data-semantic-added="true" data-semantic-type="appl" data-semantic-role="simple function" data-semantic-annotation="clearspeak:simple;depth:2" data-semantic-id="17" data-semantic-children="0,15" data-semantic-content="16,0" data-semantic-parent="18" data-semantic-owns="0 16 15" aria-level="1" data-speech-node="true"><g data-mml-node="mi" data-latex="\pi" data-semantic-type="identifier" data-semantic-role="simple function" data-semantic-font="italic" data-semantic-annotation="clearspeak:simple;nemeth:number;depth:3" data-semantic-id="0" data-semantic-parent="17" data-semantic-attributes="latex:\pi" data-semantic-operator="appl" aria-level="2" data-speech-node="true"><use data-c="1D70B" xlink:href="#MJX-84-NCM-I-1D70B" xmlns:xlink="http://www.w3.org/1999/xlink"/></g><g data-mml-node="mo" data-semantic-type="punctuation" data-semantic-role="application" data-semantic-annotation="nemeth:number;depth:3" data-semantic-id="16" data-semantic-parent="17" data-semantic-added="true" data-semantic-operator="appl" aria-level="2" data-speech-node="true" transform="translate(570,0)"><use data-c="2061" xlink:href="#MJX-84-NCM-N-2061" xmlns:xlink="http://www.w3.org/1999/xlink"/></g><g data-mml-node="mrow" data-semantic-added="true" data-semantic-type="fenced" data-semantic-role="leftright" data-semantic-annotation="depth:3" data-semantic-id="15" data-semantic-children="2" data-semantic-content="1,3" data-semantic-parent="17" data-semantic-owns="1 2 3" aria-level="2" data-speech-node="true" transform="translate(570,0)"><g data-mml-node="mo" data-latex="(" data-semantic-type="fence" data-semantic-role="open" data-semantic-annotation="depth:4" data-semantic-id="1" data-semantic-parent="15" data-semantic-attributes="latex:(" data-semantic-operator="fenced" aria-level="3" data-speech-node="true"><use data-c="28" xlink:href="#MJX-84-NCM-N-28" xmlns:xlink="http://www.w3.org/1999/xlink"/></g><g data-mml-node="mi" data-latex="x" data-semantic-type="identifier" data-semantic-role="latinletter" data-semantic-font="italic" data-semantic-annotation="clearspeak:simple;depth:4" data-semantic-id="2" data-semantic-parent="15" data-semantic-attributes="latex:x" aria-level="3" data-speech-node="true" transform="translate(389,0)"><use data-c="1D465" xlink:href="#MJX-84-NCM-I-1D465" xmlns:xlink="http://www.w3.org/1999/xlink"/></g><g data-mml-node="mo" data-latex=")" data-semantic-type="fence" data-semantic-role="close" data-semantic-annotation="depth:4" data-semantic-id="3" data-semantic-parent="15" data-semantic-attributes="latex:)" data-semantic-operator="fenced" aria-level="3" data-speech-node="true" transform="translate(961,0)"><use data-c="29" xlink:href="#MJX-84-NCM-N-29" xmlns:xlink="http://www.w3.org/1999/xlink"/></g></g></g><g data-mml-node="mo" data-latex="&lt;" data-semantic-type="relation" data-semantic-role="inequality" data-semantic-annotation="nemeth:number;depth:2" data-semantic-id="4" data-semantic-parent="18" data-semantic-attributes="latex:&lt;" data-semantic-operator="relseq,&lt;" aria-level="1" data-speech-node="true" transform="translate(2197.8,0)"><use data-c="3C" xlink:href="#MJX-84-NCM-N-3C" xmlns:xlink="http://www.w3.org/1999/xlink"/></g><g data-mml-node="mfrac" data-latex="\frac{x}{\ln x - 1.1}" data-semantic-type="fraction" data-semantic-role="division" data-semantic-annotation="depth:2" data-semantic-id="14" data-semantic-children="5,13" data-semantic-parent="18" data-semantic-attributes="latex:\frac{x}{\ln x - 1.1}" data-semantic-owns="5 13" aria-level="1" data-speech-node="true" transform="translate(3253.6,0)"><g data-mml-node="mi" data-latex="x" data-semantic-type="identifier" data-semantic-role="latinletter" data-semantic-font="italic" data-semantic-annotation="clearspeak:simple;nemeth:number;depth:3" data-semantic-id="5" data-semantic-parent="14" data-semantic-attributes="latex:x" aria-level="2" data-speech-node="true" transform="translate(1970.6,676)"><use data-c="1D465" xlink:href="#MJX-84-NCM-I-1D465" xmlns:xlink="http://www.w3.org/1999/xlink"/></g><g data-mml-node="mrow" data-latex="\ln x - 1.1" data-semantic-type="infixop" data-semantic-role="subtraction" data-semantic-annotation="depth:3" data-semantic-id="13" data-semantic-children="12,10" data-semantic-content="9" data-semantic-parent="14" data-semantic-attributes="latex:\ln x - 1.1" data-semantic-owns="12 9 10" aria-level="2" data-speech-node="true" transform="translate(220,-686)"><g data-mml-node="mrow" data-semantic-added="true" data-semantic-type="appl" data-semantic-role="prefix function" data-semantic-annotation="clearspeak:simple;depth:4" data-semantic-id="12" data-semantic-children="6,8" data-semantic-content="11,6" data-semantic-parent="13" data-semantic-owns="6 11 8" aria-level="3" data-speech-node="true"><g data-mml-node="mi" data-latex="\ln" data-semantic-type="function" data-semantic-role="prefix function" data-semantic-font="normal" data-semantic-annotation="nemeth:number;depth:5" data-semantic-id="6" data-semantic-parent="12" data-semantic-attributes="latex:\ln" data-semantic-operator="appl" aria-level="4" data-speech-node="true"><use data-c="6C" xlink:href="#MJX-84-NCM-N-6C" xmlns:xlink="http://www.w3.org/1999/xlink"/><use data-c="6E" xlink:href="#MJX-84-NCM-N-6E" xmlns:xlink="http://www.w3.org/1999/xlink" transform="translate(278,0)"/></g><g data-mml-node="mo" data-mjx-texclass="NONE" data-semantic-type="punctuation" data-semantic-role="application" data-semantic-annotation="nemeth:number;depth:5" data-semantic-id="11" data-semantic-parent="12" data-semantic-attributes="texclass:NONE" data-semantic-operator="appl" aria-level="4" data-speech-node="true" transform="translate(834,0)"><use data-c="2061" xlink:href="#MJX-84-NCM-N-2061" xmlns:xlink="http://www.w3.org/1999/xlink"/></g><g data-mml-node="mi" data-latex="x" data-semantic-type="identifier" data-semantic-role="latinletter" data-semantic-font="italic" data-semantic-annotation="clearspeak:simple;nemeth:number;depth:5" data-semantic-id="8" data-semantic-parent="12" data-semantic-attributes="latex:x" aria-level="4" data-speech-node="true" transform="translate(1000.7,0)"><use data-c="1D465" xlink:href="#MJX-84-NCM-I-1D465" xmlns:xlink="http://www.w3.org/1999/xlink"/></g></g><g data-mml-node="mo" data-latex="-" data-semantic-type="operator" data-semantic-role="subtraction" data-semantic-annotation="depth:4" data-semantic-id="9" data-semantic-parent="13" data-semantic-attributes="latex:-" data-semantic-operator="infixop,−" aria-level="3" data-speech-node="true" transform="translate(1794.9,0)"><use data-c="2212" xlink:href="#MJX-84-NCM-N-2212" xmlns:xlink="http://www.w3.org/1999/xlink"/></g><g data-mml-node="mn" data-latex=".1" data-semantic-type="number" data-semantic-role="float" data-semantic-font="normal" data-semantic-annotation="clearspeak:simple;depth:4" data-semantic-id="10" data-semantic-parent="13" data-semantic-attributes="latex:.1" aria-level="3" data-speech-node="true" transform="translate(2795.1,0)"><use data-c="31" xlink:href="#MJX-84-NCM-N-31" xmlns:xlink="http://www.w3.org/1999/xlink"/><use data-c="2E" xlink:href="#MJX-84-NCM-N-2E" xmlns:xlink="http://www.w3.org/1999/xlink" transform="translate(500,0)"/><use data-c="31" xlink:href="#MJX-84-NCM-N-31" xmlns:xlink="http://www.w3.org/1999/xlink" transform="translate(778,0)"/></g></g><rect width="4273.1" height="60" x="120" y="220"/></g></g></g></svg>